<?xml version="1.0" standalone="no"?>
<!DOCTYPE svg PUBLIC "-//W3C//DTD SVG 20010904//EN"
 "http://www.w3.org/TR/2001/REC-SVG-20010904/DTD/svg10.dtd">
<svg version="1.0" xmlns="http://www.w3.org/2000/svg"
 width="600.000000pt" height="600.000000pt" viewBox="0 0 600.000000 600.000000"
 preserveAspectRatio="xMidYMid meet">
<metadata>
Created by potrace 1.11, written by Peter Selinger 2001-2013
</metadata>
<g transform="translate(0.000000,600.000000) scale(0.100000,-0.100000)"
fill="#000000" stroke="none">
<path d="M0 3472 l0 -2527 473 -473 472 -472 2528 0 2527 0 0 2528 0 2527
-473 473 -472 472 -2528 0 -2527 0 0 -2528z m567 1966 l373 -373 0 -837 c0
-461 3 -838 8 -837 4 0 635 321 1402 713 l1395 713 3 -531 c2 -460 0 -532 -13
-542 -8 -6 -573 -296 -1255 -644 -682 -348 -1238 -636 -1235 -639 4 -3 567
-292 1253 -642 l1247 -637 3 -466 c1 -256 0 -466 -2 -466 -2 0 -634 299 -1405
664 l-1401 664 0 -697 0 -696 -380 380 -380 380 0 2432 c0 1338 3 2433 7 2433
5 0 176 -168 380 -372z m5243 -2718 l0 -2345 -375 375 -375 375 0 2345 0 2345
375 -375 375 -375 0 -2345z m0 -2533 c0 -4 -168 -6 -372 -5 l-373 3 -3 380 -2
380 375 -375 c206 -206 375 -378 375 -383z"/>
</g>
</svg>
